<svg width="24" height="23" viewBox="0 0 24 23" fill="none" xmlns="http://www.w3.org/2000/svg">
<path d="M5 22.485C4.0625 22.485 3.13542 22.2558 2.21875 21.7975C1.30208 21.3392 0.5625 20.735 0 19.985C0.541667 19.985 1.09375 19.7715 1.65625 19.3444C2.21875 18.9173 2.5 18.2975 2.5 17.485C2.5 16.4433 2.86458 15.5579 3.59375 14.8287C4.32292 14.0996 5.20833 13.735 6.25 13.735C7.29167 13.735 8.17708 14.0996 8.90625 14.8287C9.63542 15.5579 10 16.4433 10 17.485C10 18.86 9.51042 20.0371 8.53125 21.0163C7.55208 21.9954 6.375 22.485 5 22.485ZM5 19.985C5.6875 19.985 6.27604 19.7402 6.76562 19.2506C7.25521 18.761 7.5 18.1725 7.5 17.485C7.5 17.1308 7.38021 16.834 7.14062 16.5944C6.90104 16.3548 6.60417 16.235 6.25 16.235C5.89583 16.235 5.59896 16.3548 5.35938 16.5944C5.11979 16.834 5 17.1308 5 17.485C5 17.9642 4.94271 18.4017 4.82812 18.7975C4.71354 19.1933 4.5625 19.5683 4.375 19.9225C4.47917 19.9642 4.58333 19.985 4.6875 19.985C4.79167 19.985 4.89583 19.985 5 19.985ZM12.1875 14.985L8.75 11.5475L19.9375 0.36C20.1667 0.130833 20.4531 0.0110417 20.7969 0.000625C21.1406 -0.00979167 21.4375 0.11 21.6875 0.36L23.375 2.0475C23.625 2.2975 23.75 2.58917 23.75 2.9225C23.75 3.25583 23.625 3.5475 23.375 3.7975L12.1875 14.985Z" fill="#003527"/>
</svg>
